<svg version="1.1" id="Layer_1" xmlns="http://www.w3.org/2000/svg" xmlns:xlink="http://www.w3.org/1999/xlink" x="0px" y="0px"
	 width="100%" viewBox="0 0 500 500" enable-background="new 0 0 500 500" xml:space="preserve">
<path fill="#FFFFFF" opacity="1.000000" stroke="none" 
	d="
M27.000000,1.000000 
	C184.965805,1.000000 342.931610,1.000000 500.948700,1.000000 
	C500.948700,167.596390 500.948700,334.192810 500.948700,500.894592 
	C334.439728,500.894592 167.879364,500.894592 1.159505,500.894592 
	C1.159505,334.333435 1.159505,167.666748 1.159505,1.000000 
	C7.404315,1.000000 13.735959,1.000000 20.412670,1.337357 
	C14.280333,3.905339 10.253218,8.835959 10.157593,14.653059 
	C10.076277,19.599712 12.448505,21.926649 20.147234,24.451969 
	C17.003918,35.593376 18.956991,42.988918 26.221136,47.451508 
	C32.947586,51.583775 42.567524,50.249329 49.347652,44.243481 
	C56.571404,37.844673 59.133015,27.962290 55.547222,20.326290 
	C51.938038,12.640498 45.556786,10.304483 33.107685,12.257592 
	C34.077927,6.869708 31.106602,3.611571 27.000000,1.000000 
M206.608627,288.777771 
	C206.427490,288.694305 206.246368,288.610809 206.421402,287.923798 
	C214.784576,279.368896 223.147751,270.814026 232.170593,261.584351 
	C228.166565,257.922333 224.437775,254.512039 220.617691,251.018265 
	C190.570724,282.852814 160.685928,314.673615 130.607346,346.310211 
	C117.530777,360.064087 104.329865,373.722168 90.699448,386.921906 
	C68.975708,407.959290 50.580158,431.351257 37.528622,458.749115 
	C36.471237,460.968750 35.673698,463.312195 34.755417,465.598145 
	C35.321960,466.064270 35.888500,466.530396 36.455044,466.996521 
	C57.497887,449.647308 79.393272,433.221100 99.395378,414.745178 
	C134.516739,382.303619 168.473969,348.601959 202.929123,315.438843 
	C215.639679,303.204865 228.379440,291.001251 241.321930,278.576416 
	C238.800232,273.763092 236.390701,269.163879 233.229797,263.130493 
	C225.421448,271.366425 218.469711,278.771881 211.410751,286.073669 
	C210.212067,287.313599 208.553131,288.108582 206.608627,288.777771 
M216.508316,210.991562 
	C184.584076,179.855820 152.659836,148.720062 120.408279,117.265076 
	C118.332695,122.712395 116.778282,127.649895 114.582382,132.283386 
	C112.827972,135.985291 113.325737,138.272186 116.406624,141.160217 
	C154.461487,176.832611 192.505203,212.520233 230.160461,248.612213 
	C236.144302,254.347626 240.661057,261.814575 245.001556,268.997406 
	C248.228836,274.337952 250.074280,280.513489 252.538086,286.323975 
	C264.762909,287.211823 273.181000,294.607941 280.627655,303.407074 
	C305.213867,332.458710 331.640106,359.696259 360.287598,384.767242 
	C389.672180,410.483307 420.689789,433.940887 454.774292,453.160706 
	C456.839081,454.325043 458.972687,455.367310 461.074249,456.466370 
	C461.469666,456.150208 461.865082,455.834045 462.260498,455.517853 
	C460.402618,449.901886 459.071472,444.040924 456.593872,438.713135 
	C446.886871,417.839569 432.662140,399.958923 417.985504,382.492188 
	C384.375824,342.493225 347.304840,305.803467 309.277588,270.069550 
	C301.473785,262.736359 295.194275,254.697052 292.602203,244.340027 
	C281.884003,243.155121 273.309875,237.786331 266.208740,230.810165 
	C239.820496,204.886353 213.887405,178.499420 187.767075,152.302643 
	C173.881927,138.376862 159.985641,124.461906 146.019135,110.617981 
	C144.844818,109.453964 142.824356,107.872910 141.664856,108.190987 
	C137.321823,109.382423 133.173218,111.282578 128.534866,113.078430 
	C192.652100,178.675339 256.208313,243.698273 319.764526,308.721222 
	C319.261322,309.225525 318.758118,309.729828 318.254883,310.234161 
	C284.506561,277.319427 250.758240,244.404709 216.508316,210.991562 
M384.479736,119.193306 
	C405.658264,120.640617 418.968262,134.754211 432.176086,148.940125 
	C442.396820,142.538589 443.645660,132.417206 435.146393,123.902176 
	C412.193756,100.906937 389.175842,77.976715 366.146088,55.058605 
	C360.473145,49.413143 353.837524,49.955708 349.252258,56.554455 
	C347.505096,59.068851 346.433289,62.052525 344.964966,65.000542 
	C367.143677,77.176781 374.034943,97.558426 376.032867,120.319786 
	C379.013855,119.896362 381.319397,119.568878 384.479736,119.193306 
M92.192123,105.637062 
	C87.239044,124.070465 82.243080,142.492630 77.404282,160.955978 
	C76.958008,162.658829 76.793785,165.210739 77.732689,166.361511 
	C81.042175,170.417847 84.889503,174.035370 89.038635,178.344696 
	C97.658936,156.112305 105.948456,134.994934 113.972168,113.777046 
	C115.282890,110.310997 117.275177,108.484749 120.628891,107.243942 
	C139.610611,100.221138 158.530945,93.032356 177.464310,85.879204 
	C178.918106,85.329948 180.311081,84.619720 182.021835,83.854889 
	C178.722534,80.167870 175.728058,77.045876 173.007095,73.701378 
	C171.214264,71.497681 169.584076,70.940651 166.659546,71.802551 
	C147.242172,77.525085 127.891197,83.594788 108.211143,88.252296 
	C98.482689,90.554642 93.086960,94.923454 92.192123,105.637062 
M309.421112,182.921646 
	C328.121338,163.933594 346.859741,144.982681 365.444550,125.882309 
	C366.833832,124.454529 367.969543,121.870155 367.773590,119.973175 
	C367.065796,113.121140 365.738129,106.333138 364.489349,98.554291 
	C328.796692,136.238632 293.686920,173.307571 258.893250,210.042786 
	C262.997528,214.065460 266.944153,217.933578 269.994415,220.923203 
	C282.774872,208.615097 295.851471,196.021805 309.421112,182.921646 
M383.274963,141.773026 
	C387.063019,137.885880 390.851044,133.998749 395.006500,129.734573 
	C388.583130,129.151794 382.483276,128.270355 376.374756,128.205521 
	C373.929077,128.179550 370.837036,129.308533 369.101349,131.001022 
	C338.101135,161.229706 307.263000,191.624619 276.397583,221.991486 
	C275.254883,223.115753 274.188995,224.318085 272.810181,225.777374 
	C275.994965,227.898788 278.993683,229.687378 281.755310,231.787735 
	C285.349579,234.521362 287.779907,233.662094 290.959198,230.580490 
	C321.449615,201.026962 352.128998,171.668442 383.274963,141.773026 
M459.862946,53.272945 
	C453.787109,46.676193 447.711273,40.079437 442.351166,34.259777 
	C426.611267,49.803776 411.422638,64.803398 396.663177,79.379158 
	C402.557068,85.441811 408.666962,91.726639 415.018219,98.259766 
	C429.842529,83.442116 444.643616,68.647675 459.862946,53.272945 
M95.930016,68.576180 
	C86.736916,58.339359 75.991180,50.048889 64.017899,43.344742 
	C62.738178,42.628197 60.683380,41.956146 59.572018,42.486641 
	C48.864388,47.597813 46.953182,53.830620 52.698364,64.088875 
	C53.669933,65.823647 54.605511,67.636803 55.888332,69.129639 
	C64.540863,79.198715 73.276558,89.196404 82.012146,99.193779 
	C82.465416,99.712532 83.163895,100.017021 84.196442,100.731354 
	C85.282265,87.649918 92.485657,81.358185 105.476479,80.695778 
	C102.105736,76.396996 99.250069,72.755104 95.930016,68.576180 
M449.080719,26.950615 
	C449.357330,27.904371 449.582886,28.876492 449.918518,29.809006 
	C452.875092,38.023651 458.644592,43.027889 467.294678,44.203243 
	C476.186432,45.411430 483.361938,42.054028 488.144379,34.515163 
	C492.928680,26.973404 492.736237,19.046923 488.052917,11.498249 
	C482.959442,3.288386 472.806396,-0.020440 463.126251,2.992505 
	C453.814972,5.890657 448.517395,14.557054 449.080719,26.950615 
z"/>
<path fill="#162A33" opacity="1.000000" stroke="none" 
	d="
M26.571537,1.000000 
	C31.106602,3.611571 34.077927,6.869708 33.107685,12.257592 
	C45.556786,10.304483 51.938038,12.640498 55.547222,20.326290 
	C59.133015,27.962290 56.571404,37.844673 49.347652,44.243481 
	C42.567524,50.249329 32.947586,51.583775 26.221136,47.451508 
	C18.956991,42.988918 17.003918,35.593376 20.147234,24.451969 
	C12.448505,21.926649 10.076277,19.599712 10.157593,14.653059 
	C10.253218,8.835959 14.280333,3.905339 20.878868,1.337357 
	C22.714357,1.000000 24.428717,1.000000 26.571537,1.000000 
z"/>
<path fill="#152932" opacity="1.000000" stroke="none" 
	d="
M216.759125,211.240768 
	C250.758240,244.404709 284.506561,277.319427 318.254883,310.234161 
	C318.758118,309.729828 319.261322,309.225525 319.764526,308.721222 
	C256.208313,243.698273 192.652100,178.675339 128.534866,113.078430 
	C133.173218,111.282578 137.321823,109.382423 141.664856,108.190987 
	C142.824356,107.872910 144.844818,109.453964 146.019135,110.617981 
	C159.985641,124.461906 173.881927,138.376862 187.767075,152.302643 
	C213.887405,178.499420 239.820496,204.886353 266.208740,230.810165 
	C273.309875,237.786331 281.884003,243.155121 292.602203,244.340027 
	C295.194275,254.697052 301.473785,262.736359 309.277588,270.069550 
	C347.304840,305.803467 384.375824,342.493225 417.985504,382.492188 
	C432.662140,399.958923 446.886871,417.839569 456.593872,438.713135 
	C459.071472,444.040924 460.402618,449.901886 462.260498,455.517853 
	C461.865082,455.834045 461.469666,456.150208 461.074249,456.466370 
	C458.972687,455.367310 456.839081,454.325043 454.774292,453.160706 
	C420.689789,433.940887 389.672180,410.483307 360.287598,384.767242 
	C331.640106,359.696259 305.213867,332.458710 280.627655,303.407074 
	C273.181000,294.607941 264.762909,287.211823 252.538086,286.323975 
	C250.074280,280.513489 248.228836,274.337952 245.001556,268.997406 
	C240.661057,261.814575 236.144302,254.347626 230.160461,248.612213 
	C192.505203,212.520233 154.461487,176.832611 116.406624,141.160217 
	C113.325737,138.272186 112.827972,135.985291 114.582382,132.283386 
	C116.778282,127.649895 118.332695,122.712395 120.408279,117.265076 
	C152.659836,148.720062 184.584076,179.855820 216.759125,211.240768 
M334.037292,324.317200 
	C333.742096,323.879608 333.446899,323.442017 333.151703,323.004425 
	C333.214813,323.612915 333.277924,324.221405 334.037292,324.317200 
M331.500000,321.000000 
	C331.366669,321.199982 331.233337,321.399994 331.100006,321.600006 
	C331.399994,321.566650 331.700012,321.533325 331.500000,321.000000 
z"/>
<path fill="#172B34" opacity="1.000000" stroke="none" 
	d="
M207.106827,289.109131 
	C208.553131,288.108582 210.212067,287.313599 211.410751,286.073669 
	C218.469711,278.771881 225.421448,271.366425 233.229797,263.130493 
	C236.390701,269.163879 238.800232,273.763092 241.321930,278.576416 
	C228.379440,291.001251 215.639679,303.204865 202.929123,315.438843 
	C168.473969,348.601959 134.516739,382.303619 99.395378,414.745178 
	C79.393272,433.221100 57.497887,449.647308 36.455044,466.996521 
	C35.888500,466.530396 35.321960,466.064270 34.755417,465.598145 
	C35.673698,463.312195 36.471237,460.968750 37.528622,458.749115 
	C50.580158,431.351257 68.975708,407.959290 90.699448,386.921906 
	C104.329865,373.722168 117.530777,360.064087 130.607346,346.310211 
	C160.685928,314.673615 190.570724,282.852814 220.617691,251.018265 
	C224.437775,254.512039 228.166565,257.922333 232.170593,261.584351 
	C223.147751,270.814026 214.784576,279.368896 206.032715,288.343384 
	C205.330002,288.919037 205.144333,289.170074 204.859100,289.656677 
	C204.431808,290.079132 204.232407,290.360962 203.826630,290.897675 
	C204.113312,291.136414 204.606400,291.120239 205.348694,291.035858 
	C205.766937,290.681122 205.935989,290.394623 206.354004,290.039551 
	C206.770935,289.683685 206.938889,289.396423 207.106827,289.109131 
M173.553879,321.061127 
	C173.065002,321.919128 172.576141,322.777130 171.918030,323.932129 
	C182.295517,313.028351 192.336090,302.478577 202.376663,291.928802 
	C202.369644,291.915283 202.362610,291.901764 202.355576,291.888275 
	C192.922302,301.445221 183.489029,311.002197 173.553879,321.061127 
M170.495361,325.914673 
	C170.544724,325.959442 170.542160,326.012695 170.495361,325.914673 
M168.390182,328.084869 
	C168.412079,328.150482 168.433975,328.216125 168.390182,328.084869 
M166.633255,329.918671 
	C166.608032,329.850037 166.582825,329.781372 166.633255,329.918671 
M164.389709,331.878937 
	C164.455292,331.857239 164.520874,331.835510 164.586456,331.813812 
	C164.586823,331.932678 164.587204,332.051575 164.587585,332.170441 
	C164.521881,332.149475 164.456192,332.128540 164.389709,331.878937 
z"/>
<path fill="#172B34" opacity="1.000000" stroke="none" 
	d="
M384.052338,119.217346 
	C381.319397,119.568878 379.013855,119.896362 376.032867,120.319786 
	C374.034943,97.558426 367.143677,77.176781 344.964966,65.000542 
	C346.433289,62.052525 347.505096,59.068851 349.252258,56.554455 
	C353.837524,49.955708 360.473145,49.413143 366.146088,55.058605 
	C389.175842,77.976715 412.193756,100.906937 435.146393,123.902176 
	C443.645660,132.417206 442.396820,142.538589 432.176086,148.940125 
	C418.968262,134.754211 405.658264,120.640617 384.052338,119.217346 
z"/>
<path fill="#172B34" opacity="1.000000" stroke="none" 
	d="
M92.315201,105.246948 
	C93.086960,94.923454 98.482689,90.554642 108.211143,88.252296 
	C127.891197,83.594788 147.242172,77.525085 166.659546,71.802551 
	C169.584076,70.940651 171.214264,71.497681 173.007095,73.701378 
	C175.728058,77.045876 178.722534,80.167870 182.021835,83.854889 
	C180.311081,84.619720 178.918106,85.329948 177.464310,85.879204 
	C158.530945,93.032356 139.610611,100.221138 120.628891,107.243942 
	C117.275177,108.484749 115.282890,110.310997 113.972168,113.777046 
	C105.948456,134.994934 97.658936,156.112305 89.038635,178.344696 
	C84.889503,174.035370 81.042175,170.417847 77.732689,166.361511 
	C76.793785,165.210739 76.958008,162.658829 77.404282,160.955978 
	C82.243080,142.492630 87.239044,124.070465 92.315201,105.246948 
M94.949768,135.491653 
	C92.259163,144.558502 89.568565,153.625366 86.535316,163.846893 
	C94.345703,157.689484 108.251099,119.246460 105.990768,109.598816 
	C102.016716,118.810280 98.582878,126.769577 94.949768,135.491653 
z"/>
<path fill="#162A32" opacity="1.000000" stroke="none" 
	d="
M309.174561,183.175079 
	C295.851471,196.021805 282.774872,208.615097 269.994415,220.923203 
	C266.944153,217.933578 262.997528,214.065460 258.893250,210.042786 
	C293.686920,173.307571 328.796692,136.238632 364.489349,98.554291 
	C365.738129,106.333138 367.065796,113.121140 367.773590,119.973175 
	C367.969543,121.870155 366.833832,124.454529 365.444550,125.882309 
	C346.859741,144.982681 328.121338,163.933594 309.174561,183.175079 
z"/>
<path fill="#172A33" opacity="1.000000" stroke="none" 
	d="
M383.014587,142.013519 
	C352.128998,171.668442 321.449615,201.026962 290.959198,230.580490 
	C287.779907,233.662094 285.349579,234.521362 281.755310,231.787735 
	C278.993683,229.687378 275.994965,227.898788 272.810181,225.777374 
	C274.188995,224.318085 275.254883,223.115753 276.397583,221.991486 
	C307.263000,191.624619 338.101135,161.229706 369.101349,131.001022 
	C370.837036,129.308533 373.929077,128.179550 376.374756,128.205521 
	C382.483276,128.270355 388.583130,129.151794 395.006500,129.734573 
	C390.851044,133.998749 387.063019,137.885880 383.014587,142.013519 
z"/>
<path fill="#162A33" opacity="1.000000" stroke="none" 
	d="
M459.653809,53.563091 
	C444.643616,68.647675 429.842529,83.442116 415.018219,98.259766 
	C408.666962,91.726639 402.557068,85.441811 396.663177,79.379158 
	C411.422638,64.803398 426.611267,49.803776 442.351166,34.259777 
	C447.711273,40.079437 453.787109,46.676193 459.653809,53.563091 
z"/>
<path fill="#162A33" opacity="1.000000" stroke="none" 
	d="
M96.162201,68.844696 
	C99.250069,72.755104 102.105736,76.396996 105.476479,80.695778 
	C92.485657,81.358185 85.282265,87.649918 84.196442,100.731354 
	C83.163895,100.017021 82.465416,99.712532 82.012146,99.193779 
	C73.276558,89.196404 64.540863,79.198715 55.888332,69.129639 
	C54.605511,67.636803 53.669933,65.823647 52.698364,64.088875 
	C46.953182,53.830620 48.864388,47.597813 59.572018,42.486641 
	C60.683380,41.956146 62.738178,42.628197 64.017899,43.344742 
	C75.991180,50.048889 86.736916,58.339359 96.162201,68.844696 
z"/>
<path fill="#182B34" opacity="1.000000" stroke="none" 
	d="
M449.046936,26.515532 
	C448.517395,14.557054 453.814972,5.890657 463.126251,2.992505 
	C472.806396,-0.020440 482.959442,3.288386 488.052917,11.498249 
	C492.736237,19.046923 492.928680,26.973404 488.144379,34.515163 
	C483.361938,42.054028 476.186432,45.411430 467.294678,44.203243 
	C458.644592,43.027889 452.875092,38.023651 449.918518,29.809006 
	C449.582886,28.876492 449.357330,27.904371 449.046936,26.515532 
M475.700714,15.516951 
	C468.915283,11.954594 462.262878,14.514602 460.857117,21.229166 
	C459.891479,25.841234 462.227966,30.349241 466.672394,32.140957 
	C471.148193,33.945301 474.846680,32.503887 477.751862,28.936337 
	C481.036072,24.903379 480.519531,20.898354 475.700714,15.516951 
z"/>
<path fill="#FFFFFF" opacity="1.000000" stroke="none" 
	d="
M333.689148,324.573547 
	C333.277924,324.221405 333.214813,323.612915 333.151703,323.004425 
	C333.446899,323.442017 333.742096,323.879608 333.689148,324.573547 
z"/>
<path fill="#FFFFFF" opacity="1.000000" stroke="none" 
	d="
M331.750000,321.250000 
	C331.700012,321.533325 331.399994,321.566650 331.100006,321.600006 
	C331.233337,321.399994 331.366669,321.199982 331.750000,321.250000 
z"/>
<path fill="#DCDFE0" opacity="1.000000" stroke="none" 
	d="
M173.804825,320.810150 
	C183.489029,311.002197 192.922302,301.445221 202.355576,291.888275 
	C202.362610,291.901764 202.369644,291.915283 202.376663,291.928802 
	C192.336090,302.478577 182.295517,313.028351 171.918030,323.932129 
	C172.576141,322.777130 173.065002,321.919128 173.804825,320.810150 
z"/>
<path fill="#DCDFE0" opacity="1.000000" stroke="none" 
	d="
M170.491501,325.994537 
	C170.542160,326.012695 170.544724,325.959442 170.491501,325.994537 
z"/>
<path fill="#DCDFE0" opacity="1.000000" stroke="none" 
	d="
M168.423035,328.183289 
	C168.433975,328.216125 168.412079,328.150482 168.423035,328.183289 
z"/>
<path fill="#DCDFE0" opacity="1.000000" stroke="none" 
	d="
M166.595428,329.815704 
	C166.582825,329.781372 166.608032,329.850037 166.595428,329.815704 
z"/>
<path fill="#DCDFE0" opacity="1.000000" stroke="none" 
	d="
M164.390106,331.993256 
	C164.456192,332.128540 164.521881,332.149475 164.587585,332.170441 
	C164.587204,332.051575 164.586823,331.932678 164.586456,331.813812 
	C164.520874,331.835510 164.455292,331.857239 164.390106,331.993256 
z"/>
<path fill="#FFFFFF" opacity="1.000000" stroke="none" 
	d="
M205.087006,289.516052 
	C205.144333,289.170074 205.330002,288.919037 205.854630,288.645142 
	C206.246368,288.610809 206.427490,288.694305 206.857727,288.943481 
	C206.938889,289.396423 206.770935,289.683685 206.110962,289.871796 
	C205.441620,289.687103 205.264313,289.601593 205.087006,289.516052 
z"/>
<path fill="#FFFFFF" opacity="1.000000" stroke="none" 
	d="
M205.861984,289.940369 
	C205.935989,290.394623 205.766937,290.681122 205.095657,290.889099 
	C204.406616,290.754669 204.219818,290.698730 204.033005,290.642761 
	C204.232407,290.360962 204.431808,290.079132 204.859100,289.656677 
	C205.264313,289.601593 205.441620,289.687103 205.861984,289.940369 
z"/>
<path fill="#FFFFFF" opacity="1.000000" stroke="none" 
	d="
M204.846436,290.957336 
	C204.606400,291.120239 204.113312,291.136414 203.826630,290.897675 
	C204.219818,290.698730 204.406616,290.754669 204.846436,290.957336 
z"/>
<path fill="#F2F3F3" opacity="1.000000" stroke="none" 
	d="
M95.049408,135.110260 
	C98.582878,126.769577 102.016716,118.810280 105.990768,109.598816 
	C108.251099,119.246460 94.345703,157.689484 86.535316,163.846893 
	C89.568565,153.625366 92.259163,144.558502 95.049408,135.110260 
z"/>
<path fill="#F9FAFA" opacity="1.000000" stroke="none" 
	d="
M476.004456,15.766708 
	C480.519531,20.898354 481.036072,24.903379 477.751862,28.936337 
	C474.846680,32.503887 471.148193,33.945301 466.672394,32.140957 
	C462.227966,30.349241 459.891479,25.841234 460.857117,21.229166 
	C462.262878,14.514602 468.915283,11.954594 476.004456,15.766708 
z"/>
</svg>